# xmcd
#
# Track frame offsets: 
#        150
#        23026
#        39124
#        56847
#        75505
#        94877
#        108904
#        120648
#        136108
#        163733
#
# Disc length: 2459 seconds
#
# Revision: 0
# Processed by: cddbd v1.5.2PL0 Copyright (c) Steve Scherf et al.
# Submitted via: ExactAudioCopyFreeDBPlugin 1.0
#
DISCID=7309990a
DTITLE=Kortez - Bumerang
DYEAR=2015
DGENRE=Pop
TTITLE0=Pocztówka z kosmosu
TTITLE1=Wracaj do domu
TTITLE2=Od dawna już wiem
TTITLE3=? - Zostań
TTITLE4=Ludzie z lodu
TTITLE5=Z imbirem
TTITLE6=Niby nic
TTITLE7=Uleciało
TTITLE8=Bumerang
TTITLE9=Dla Mamy
EXTD=
EXTT0=
EXTT1=
EXTT2=
EXTT3=
EXTT4=
EXTT5=
EXTT6=
EXTT7=
EXTT8=
EXTT9=
PLAYORDER=
